<?xml version="1.0" encoding="UTF-8" standalone="no"?>
<!-- Created with Inkscape (http://www.inkscape.org/) -->

<svg
   version="1.1"
   id="svg579"
   xml:space="preserve"
   width="32"
   height="32"
   viewBox="0 0 32 32"
   xmlns="http://www.w3.org/2000/svg"
   xmlns:svg="http://www.w3.org/2000/svg"><defs
     id="defs583"><clipPath
       clipPathUnits="userSpaceOnUse"
       id="clipPath593"><path
         d="M 0,24 H 24 V 0 H 0 Z"
         id="path591" /></clipPath></defs><g
     id="g585"
     transform="matrix(1.3333333,0,0,-1.3333333,0,32)"><g
       id="g587"><g
         id="g589"
         clip-path="url(#clipPath593)"><g
           id="g595"
           transform="translate(3.9741,18.5)"><path
             d="M 0,0 C 0,2.485 2.015,4.5 4.5,4.5 6.985,4.5 9,2.485 9,0 9,-2.485 6.985,-4.5 4.5,-4.5 2.015,-4.5 0,-2.485 0,0 Z"
             style="fill:none;stroke:#000000;stroke-width:2;stroke-linecap:butt;stroke-linejoin:miter;stroke-miterlimit:10;stroke-dasharray:none;stroke-opacity:1"
             id="path597" /></g><g
           id="g599"
           transform="translate(11,7)"><path
             d="M 0,0 C 0,3.313 2.687,6 6,6 9.313,6 12,3.313 12,0 12,-3.313 9.313,-6 6,-6 2.687,-6 0,-3.313 0,0 Z"
             style="fill:none;stroke:#000000;stroke-width:2;stroke-linecap:butt;stroke-linejoin:miter;stroke-miterlimit:10;stroke-dasharray:none;stroke-opacity:1"
             id="path601" /></g><g
           id="g603"
           transform="translate(17,10)"><path
             d="M 0,0 V -3 L 2,-5"
             style="fill:none;stroke:#000000;stroke-width:2;stroke-linecap:butt;stroke-linejoin:miter;stroke-miterlimit:10;stroke-dasharray:none;stroke-opacity:1"
             id="path605" /></g><g
           id="g607"
           transform="translate(8.9468,11)"><path
             d="m 0,0 h -3.947 c -2.757,0 -5,-2.243 -5,-5 v -6 h 2 v 6 c 0,1.654 1.346,3 3,3 h 3.231 c 0.159,0.702 0.403,1.371 0.716,2"
             style="fill:#000000;fill-opacity:1;fill-rule:nonzero;stroke:none"
             id="path609" /></g></g></g></g></svg>
